<mxfile host="app.diagrams.net" modified="2023-05-01T20:43:12.392Z" agent="Mozilla/5.0 (Windows NT 10.0; Win64; x64) AppleWebKit/537.36 (KHTML, like Gecko) Chrome/112.0.0.0 Safari/537.36" etag="mERMqVSNJHnas6HDqQ-Z" version="21.1.2" type="github">
  <diagram name="Page-1" id="x2dLZpFsMUdR2THL_J5Z">
    <mxGraphModel dx="2259" dy="779" grid="1" gridSize="10" guides="1" tooltips="1" connect="1" arrows="1" fold="1" page="1" pageScale="1" pageWidth="827" pageHeight="1169" math="0" shadow="0">
      <root>
        <mxCell id="0" />
        <mxCell id="1" parent="0" />
        <mxCell id="AJ9WOM8VjCzLyiREaS5K-4" style="edgeStyle=orthogonalEdgeStyle;rounded=0;orthogonalLoop=1;jettySize=auto;html=1;" edge="1" parent="1" source="AJ9WOM8VjCzLyiREaS5K-2" target="AJ9WOM8VjCzLyiREaS5K-3">
          <mxGeometry relative="1" as="geometry" />
        </mxCell>
        <mxCell id="AJ9WOM8VjCzLyiREaS5K-2" value="/start, /help" style="rounded=0;whiteSpace=wrap;html=1;" vertex="1" parent="1">
          <mxGeometry x="370" y="40" width="120" height="60" as="geometry" />
        </mxCell>
        <mxCell id="AJ9WOM8VjCzLyiREaS5K-7" style="edgeStyle=orthogonalEdgeStyle;rounded=0;orthogonalLoop=1;jettySize=auto;html=1;exitX=0.5;exitY=1;exitDx=0;exitDy=0;entryX=0.5;entryY=0;entryDx=0;entryDy=0;" edge="1" parent="1" source="AJ9WOM8VjCzLyiREaS5K-3" target="AJ9WOM8VjCzLyiREaS5K-5">
          <mxGeometry relative="1" as="geometry" />
        </mxCell>
        <mxCell id="AJ9WOM8VjCzLyiREaS5K-8" style="edgeStyle=orthogonalEdgeStyle;rounded=0;orthogonalLoop=1;jettySize=auto;html=1;entryX=0.5;entryY=0;entryDx=0;entryDy=0;" edge="1" parent="1" source="AJ9WOM8VjCzLyiREaS5K-3" target="AJ9WOM8VjCzLyiREaS5K-6">
          <mxGeometry relative="1" as="geometry" />
        </mxCell>
        <mxCell id="AJ9WOM8VjCzLyiREaS5K-3" value="Привет, я бот помошник !&#xa;Укажи нужные токены и цену, а я буду напоминать о достижение" style="rounded=1;whiteSpace=wrap;html=1;" vertex="1" parent="1">
          <mxGeometry x="335" y="140" width="190" height="90" as="geometry" />
        </mxCell>
        <mxCell id="AJ9WOM8VjCzLyiREaS5K-25" style="edgeStyle=orthogonalEdgeStyle;rounded=0;orthogonalLoop=1;jettySize=auto;html=1;" edge="1" parent="1" source="AJ9WOM8VjCzLyiREaS5K-5" target="AJ9WOM8VjCzLyiREaS5K-24">
          <mxGeometry relative="1" as="geometry" />
        </mxCell>
        <mxCell id="AJ9WOM8VjCzLyiREaS5K-5" value="&#39;Token list&#39;" style="rounded=0;whiteSpace=wrap;html=1;" vertex="1" parent="1">
          <mxGeometry x="60" y="270" width="120" height="60" as="geometry" />
        </mxCell>
        <mxCell id="AJ9WOM8VjCzLyiREaS5K-10" style="edgeStyle=orthogonalEdgeStyle;rounded=0;orthogonalLoop=1;jettySize=auto;html=1;entryX=0.5;entryY=0;entryDx=0;entryDy=0;" edge="1" parent="1" source="AJ9WOM8VjCzLyiREaS5K-6" target="AJ9WOM8VjCzLyiREaS5K-9">
          <mxGeometry relative="1" as="geometry" />
        </mxCell>
        <mxCell id="AJ9WOM8VjCzLyiREaS5K-6" value="&#39;add token&#39;" style="rounded=0;whiteSpace=wrap;html=1;" vertex="1" parent="1">
          <mxGeometry x="490" y="270" width="120" height="60" as="geometry" />
        </mxCell>
        <mxCell id="AJ9WOM8VjCzLyiREaS5K-16" style="edgeStyle=orthogonalEdgeStyle;rounded=0;orthogonalLoop=1;jettySize=auto;html=1;" edge="1" parent="1" source="AJ9WOM8VjCzLyiREaS5K-9" target="AJ9WOM8VjCzLyiREaS5K-15">
          <mxGeometry relative="1" as="geometry" />
        </mxCell>
        <mxCell id="AJ9WOM8VjCzLyiREaS5K-9" value="Введите токен" style="rounded=1;whiteSpace=wrap;html=1;" vertex="1" parent="1">
          <mxGeometry x="490" y="350" width="120" height="60" as="geometry" />
        </mxCell>
        <mxCell id="AJ9WOM8VjCzLyiREaS5K-14" style="edgeStyle=orthogonalEdgeStyle;rounded=0;orthogonalLoop=1;jettySize=auto;html=1;" edge="1" parent="1" source="AJ9WOM8VjCzLyiREaS5K-11" target="AJ9WOM8VjCzLyiREaS5K-13">
          <mxGeometry relative="1" as="geometry" />
        </mxCell>
        <mxCell id="AJ9WOM8VjCzLyiREaS5K-11" value="Введите цель" style="rounded=1;whiteSpace=wrap;html=1;" vertex="1" parent="1">
          <mxGeometry x="490" y="510" width="120" height="60" as="geometry" />
        </mxCell>
        <mxCell id="AJ9WOM8VjCzLyiREaS5K-20" style="edgeStyle=orthogonalEdgeStyle;rounded=0;orthogonalLoop=1;jettySize=auto;html=1;entryX=0.5;entryY=0;entryDx=0;entryDy=0;" edge="1" parent="1" source="AJ9WOM8VjCzLyiREaS5K-13" target="AJ9WOM8VjCzLyiREaS5K-19">
          <mxGeometry relative="1" as="geometry" />
        </mxCell>
        <mxCell id="AJ9WOM8VjCzLyiREaS5K-21" style="edgeStyle=orthogonalEdgeStyle;rounded=0;orthogonalLoop=1;jettySize=auto;html=1;entryX=0.5;entryY=0;entryDx=0;entryDy=0;" edge="1" parent="1" source="AJ9WOM8VjCzLyiREaS5K-13" target="AJ9WOM8VjCzLyiREaS5K-18">
          <mxGeometry relative="1" as="geometry" />
        </mxCell>
        <mxCell id="AJ9WOM8VjCzLyiREaS5K-13" value="ЦЕЛЬ" style="shape=process;whiteSpace=wrap;html=1;backgroundOutline=1;" vertex="1" parent="1">
          <mxGeometry x="490" y="590" width="120" height="60" as="geometry" />
        </mxCell>
        <mxCell id="AJ9WOM8VjCzLyiREaS5K-17" style="edgeStyle=orthogonalEdgeStyle;rounded=0;orthogonalLoop=1;jettySize=auto;html=1;" edge="1" parent="1" source="AJ9WOM8VjCzLyiREaS5K-15" target="AJ9WOM8VjCzLyiREaS5K-11">
          <mxGeometry relative="1" as="geometry" />
        </mxCell>
        <mxCell id="AJ9WOM8VjCzLyiREaS5K-15" value="Токен" style="shape=process;whiteSpace=wrap;html=1;backgroundOutline=1;" vertex="1" parent="1">
          <mxGeometry x="490" y="430" width="120" height="60" as="geometry" />
        </mxCell>
        <mxCell id="AJ9WOM8VjCzLyiREaS5K-23" style="edgeStyle=orthogonalEdgeStyle;rounded=0;orthogonalLoop=1;jettySize=auto;html=1;entryX=0;entryY=0.5;entryDx=0;entryDy=0;exitX=0;exitY=0.5;exitDx=0;exitDy=0;" edge="1" parent="1" source="AJ9WOM8VjCzLyiREaS5K-18" target="AJ9WOM8VjCzLyiREaS5K-6">
          <mxGeometry relative="1" as="geometry">
            <Array as="points">
              <mxPoint x="360" y="720" />
              <mxPoint x="360" y="550" />
              <mxPoint x="450" y="550" />
              <mxPoint x="450" y="300" />
            </Array>
          </mxGeometry>
        </mxCell>
        <mxCell id="AJ9WOM8VjCzLyiREaS5K-18" value="&#39;add new&#39;" style="rounded=0;whiteSpace=wrap;html=1;" vertex="1" parent="1">
          <mxGeometry x="380" y="690" width="120" height="60" as="geometry" />
        </mxCell>
        <mxCell id="AJ9WOM8VjCzLyiREaS5K-22" style="edgeStyle=orthogonalEdgeStyle;rounded=0;orthogonalLoop=1;jettySize=auto;html=1;entryX=1;entryY=0.5;entryDx=0;entryDy=0;exitX=1;exitY=0.5;exitDx=0;exitDy=0;" edge="1" parent="1" source="AJ9WOM8VjCzLyiREaS5K-19" target="AJ9WOM8VjCzLyiREaS5K-3">
          <mxGeometry relative="1" as="geometry" />
        </mxCell>
        <mxCell id="AJ9WOM8VjCzLyiREaS5K-19" value="&#39;come back&#39;" style="rounded=0;whiteSpace=wrap;html=1;" vertex="1" parent="1">
          <mxGeometry x="600" y="690" width="120" height="60" as="geometry" />
        </mxCell>
        <mxCell id="AJ9WOM8VjCzLyiREaS5K-28" style="edgeStyle=orthogonalEdgeStyle;rounded=0;orthogonalLoop=1;jettySize=auto;html=1;" edge="1" parent="1" source="AJ9WOM8VjCzLyiREaS5K-24" target="AJ9WOM8VjCzLyiREaS5K-27">
          <mxGeometry relative="1" as="geometry" />
        </mxCell>
        <mxCell id="AJ9WOM8VjCzLyiREaS5K-29" style="edgeStyle=orthogonalEdgeStyle;rounded=0;orthogonalLoop=1;jettySize=auto;html=1;entryX=0.5;entryY=0;entryDx=0;entryDy=0;" edge="1" parent="1" source="AJ9WOM8VjCzLyiREaS5K-24" target="AJ9WOM8VjCzLyiREaS5K-26">
          <mxGeometry relative="1" as="geometry" />
        </mxCell>
        <mxCell id="AJ9WOM8VjCzLyiREaS5K-24" value="Вывод листа токенов и их целей" style="rounded=1;whiteSpace=wrap;html=1;" vertex="1" parent="1">
          <mxGeometry x="60" y="360" width="120" height="60" as="geometry" />
        </mxCell>
        <mxCell id="AJ9WOM8VjCzLyiREaS5K-44" style="edgeStyle=orthogonalEdgeStyle;rounded=0;orthogonalLoop=1;jettySize=auto;html=1;entryX=0.5;entryY=0;entryDx=0;entryDy=0;" edge="1" parent="1" source="AJ9WOM8VjCzLyiREaS5K-26" target="AJ9WOM8VjCzLyiREaS5K-43">
          <mxGeometry relative="1" as="geometry" />
        </mxCell>
        <mxCell id="AJ9WOM8VjCzLyiREaS5K-26" value="&#39;Del token&#39;" style="rounded=0;whiteSpace=wrap;html=1;" vertex="1" parent="1">
          <mxGeometry x="-60" y="460" width="120" height="60" as="geometry" />
        </mxCell>
        <mxCell id="AJ9WOM8VjCzLyiREaS5K-31" style="edgeStyle=orthogonalEdgeStyle;rounded=0;orthogonalLoop=1;jettySize=auto;html=1;entryX=0.5;entryY=0;entryDx=0;entryDy=0;" edge="1" parent="1" source="AJ9WOM8VjCzLyiREaS5K-27" target="AJ9WOM8VjCzLyiREaS5K-30">
          <mxGeometry relative="1" as="geometry" />
        </mxCell>
        <mxCell id="AJ9WOM8VjCzLyiREaS5K-27" value="&#39;change target&#39;" style="rounded=0;whiteSpace=wrap;html=1;" vertex="1" parent="1">
          <mxGeometry x="180" y="460" width="120" height="60" as="geometry" />
        </mxCell>
        <mxCell id="AJ9WOM8VjCzLyiREaS5K-35" style="edgeStyle=orthogonalEdgeStyle;rounded=0;orthogonalLoop=1;jettySize=auto;html=1;entryX=0.5;entryY=0;entryDx=0;entryDy=0;" edge="1" parent="1" source="AJ9WOM8VjCzLyiREaS5K-30" target="AJ9WOM8VjCzLyiREaS5K-34">
          <mxGeometry relative="1" as="geometry" />
        </mxCell>
        <mxCell id="AJ9WOM8VjCzLyiREaS5K-36" style="edgeStyle=orthogonalEdgeStyle;rounded=0;orthogonalLoop=1;jettySize=auto;html=1;entryX=0.5;entryY=0;entryDx=0;entryDy=0;" edge="1" parent="1" source="AJ9WOM8VjCzLyiREaS5K-30" target="AJ9WOM8VjCzLyiREaS5K-32">
          <mxGeometry relative="1" as="geometry" />
        </mxCell>
        <mxCell id="AJ9WOM8VjCzLyiREaS5K-30" value="Введите номер или нажмите на нужный, при отсутствие номера нажмите далее" style="rounded=1;whiteSpace=wrap;html=1;" vertex="1" parent="1">
          <mxGeometry x="180" y="555" width="120" height="75" as="geometry" />
        </mxCell>
        <mxCell id="AJ9WOM8VjCzLyiREaS5K-39" style="edgeStyle=orthogonalEdgeStyle;rounded=0;orthogonalLoop=1;jettySize=auto;html=1;entryX=0.5;entryY=0;entryDx=0;entryDy=0;" edge="1" parent="1" source="AJ9WOM8VjCzLyiREaS5K-32" target="AJ9WOM8VjCzLyiREaS5K-38">
          <mxGeometry relative="1" as="geometry" />
        </mxCell>
        <mxCell id="AJ9WOM8VjCzLyiREaS5K-32" value="Далее" style="rounded=0;whiteSpace=wrap;html=1;" vertex="1" parent="1">
          <mxGeometry x="170" y="670" width="60" height="50" as="geometry" />
        </mxCell>
        <mxCell id="AJ9WOM8VjCzLyiREaS5K-37" style="edgeStyle=orthogonalEdgeStyle;rounded=0;orthogonalLoop=1;jettySize=auto;html=1;entryX=1;entryY=0.5;entryDx=0;entryDy=0;" edge="1" parent="1" source="AJ9WOM8VjCzLyiREaS5K-34" target="AJ9WOM8VjCzLyiREaS5K-27">
          <mxGeometry relative="1" as="geometry">
            <Array as="points">
              <mxPoint x="320" y="695" />
              <mxPoint x="320" y="490" />
            </Array>
          </mxGeometry>
        </mxCell>
        <mxCell id="AJ9WOM8VjCzLyiREaS5K-34" value="Отмена" style="rounded=0;whiteSpace=wrap;html=1;" vertex="1" parent="1">
          <mxGeometry x="250" y="670" width="60" height="50" as="geometry" />
        </mxCell>
        <mxCell id="AJ9WOM8VjCzLyiREaS5K-40" style="edgeStyle=orthogonalEdgeStyle;rounded=0;orthogonalLoop=1;jettySize=auto;html=1;entryX=1;entryY=0.5;entryDx=0;entryDy=0;exitX=1;exitY=0.5;exitDx=0;exitDy=0;" edge="1" parent="1" source="AJ9WOM8VjCzLyiREaS5K-41" target="AJ9WOM8VjCzLyiREaS5K-24">
          <mxGeometry relative="1" as="geometry">
            <mxPoint x="300" y="780" as="sourcePoint" />
            <Array as="points">
              <mxPoint x="340" y="860" />
              <mxPoint x="340" y="390" />
            </Array>
          </mxGeometry>
        </mxCell>
        <mxCell id="AJ9WOM8VjCzLyiREaS5K-42" style="edgeStyle=orthogonalEdgeStyle;rounded=0;orthogonalLoop=1;jettySize=auto;html=1;entryX=0.5;entryY=0;entryDx=0;entryDy=0;" edge="1" parent="1" source="AJ9WOM8VjCzLyiREaS5K-38" target="AJ9WOM8VjCzLyiREaS5K-41">
          <mxGeometry relative="1" as="geometry" />
        </mxCell>
        <mxCell id="AJ9WOM8VjCzLyiREaS5K-38" value="Введите новую цель" style="rounded=0;whiteSpace=wrap;html=1;" vertex="1" parent="1">
          <mxGeometry x="180" y="750" width="120" height="60" as="geometry" />
        </mxCell>
        <mxCell id="AJ9WOM8VjCzLyiREaS5K-41" value="Цель успешно изменена" style="rounded=1;whiteSpace=wrap;html=1;" vertex="1" parent="1">
          <mxGeometry x="180" y="830" width="120" height="60" as="geometry" />
        </mxCell>
        <mxCell id="AJ9WOM8VjCzLyiREaS5K-47" style="edgeStyle=orthogonalEdgeStyle;rounded=0;orthogonalLoop=1;jettySize=auto;html=1;entryX=0.5;entryY=0;entryDx=0;entryDy=0;" edge="1" parent="1" source="AJ9WOM8VjCzLyiREaS5K-43" target="AJ9WOM8VjCzLyiREaS5K-45">
          <mxGeometry relative="1" as="geometry" />
        </mxCell>
        <mxCell id="AJ9WOM8VjCzLyiREaS5K-48" style="edgeStyle=orthogonalEdgeStyle;rounded=0;orthogonalLoop=1;jettySize=auto;html=1;entryX=0.5;entryY=0;entryDx=0;entryDy=0;" edge="1" parent="1" source="AJ9WOM8VjCzLyiREaS5K-43" target="AJ9WOM8VjCzLyiREaS5K-46">
          <mxGeometry relative="1" as="geometry" />
        </mxCell>
        <mxCell id="AJ9WOM8VjCzLyiREaS5K-43" value="Введите номер или нажмите на нужный, при отсутствие номера нажмите далее" style="rounded=1;whiteSpace=wrap;html=1;" vertex="1" parent="1">
          <mxGeometry x="-60" y="555" width="120" height="75" as="geometry" />
        </mxCell>
        <mxCell id="AJ9WOM8VjCzLyiREaS5K-49" style="edgeStyle=orthogonalEdgeStyle;rounded=0;orthogonalLoop=1;jettySize=auto;html=1;entryX=0;entryY=0.5;entryDx=0;entryDy=0;" edge="1" parent="1" source="AJ9WOM8VjCzLyiREaS5K-45" target="AJ9WOM8VjCzLyiREaS5K-24">
          <mxGeometry relative="1" as="geometry">
            <Array as="points">
              <mxPoint x="40" y="760" />
              <mxPoint x="-140" y="760" />
              <mxPoint x="-140" y="390" />
            </Array>
          </mxGeometry>
        </mxCell>
        <mxCell id="AJ9WOM8VjCzLyiREaS5K-45" value="Отмена" style="rounded=0;whiteSpace=wrap;html=1;" vertex="1" parent="1">
          <mxGeometry x="10" y="660" width="60" height="50" as="geometry" />
        </mxCell>
        <mxCell id="AJ9WOM8VjCzLyiREaS5K-50" style="edgeStyle=orthogonalEdgeStyle;rounded=0;orthogonalLoop=1;jettySize=auto;html=1;" edge="1" parent="1" source="AJ9WOM8VjCzLyiREaS5K-46">
          <mxGeometry relative="1" as="geometry">
            <mxPoint x="60" y="390" as="targetPoint" />
            <Array as="points">
              <mxPoint x="-140" y="685" />
              <mxPoint x="-140" y="390" />
            </Array>
          </mxGeometry>
        </mxCell>
        <mxCell id="AJ9WOM8VjCzLyiREaS5K-46" value="Удалить" style="rounded=0;whiteSpace=wrap;html=1;" vertex="1" parent="1">
          <mxGeometry x="-70" y="660" width="60" height="50" as="geometry" />
        </mxCell>
      </root>
    </mxGraphModel>
  </diagram>
</mxfile>
